<svg width="32" height="32" viewBox="0 0 32 32" fill="none" xmlns="http://www.w3.org/2000/svg">
  <rect width="32" height="32" rx="8" fill="#F97316"/>
  <path d="M10 8C10 6.89543 10.8954 6 12 6H14C15.1046 6 16 6.89543 16 8V24C16 25.1046 15.1046 26 14 26H12C10.8954 26 10 25.1046 10 24V8Z" fill="white"/>
  <path d="M18 12C18 10.8954 18.8954 10 20 10H22C23.1046 10 24 10.8954 24 12V20C24 21.1046 23.1046 22 22 22H20C18.8954 22 18 21.1046 18 20V12Z" fill="white"/>
  <circle cx="13" cy="16" r="2" fill="#F97316"/>
  <circle cx="21" cy="16" r="2" fill="#F97316"/>
</svg> 